<mxfile host="app.diagrams.net" modified="2024-07-13T08:30:15.331Z" agent="Mozilla/5.0 (Macintosh; Intel Mac OS X 10_15_7) AppleWebKit/537.36 (KHTML, like Gecko) Chrome/126.0.0.0 Safari/537.36" etag="VRlfY7nymyD1rDPtky-n" version="24.6.5" type="github">
  <diagram name="第 1 页" id="XZnX0gN0xxwrkZ87rzK0">
    <mxGraphModel dx="1647" dy="865" grid="1" gridSize="10" guides="1" tooltips="1" connect="1" arrows="1" fold="1" page="1" pageScale="1" pageWidth="827" pageHeight="1169" math="0" shadow="0">
      <root>
        <mxCell id="0" />
        <mxCell id="1" parent="0" />
        <mxCell id="zn1JRJ17HzTD-g17DCoP-41" value="" style="shape=umlLifeline;perimeter=lifelinePerimeter;whiteSpace=wrap;html=1;container=1;dropTarget=0;collapsible=0;recursiveResize=0;outlineConnect=0;portConstraint=eastwest;newEdgeStyle={&quot;curved&quot;:0,&quot;rounded&quot;:0};participant=umlActor;" vertex="1" parent="1">
          <mxGeometry x="140" y="140" width="20" height="860" as="geometry" />
        </mxCell>
        <mxCell id="zn1JRJ17HzTD-g17DCoP-42" value="MiOpenFeignService" style="shape=umlLifeline;perimeter=lifelinePerimeter;whiteSpace=wrap;html=1;container=1;dropTarget=0;collapsible=0;recursiveResize=0;outlineConnect=0;portConstraint=eastwest;newEdgeStyle={&quot;curved&quot;:0,&quot;rounded&quot;:0};" vertex="1" parent="1">
          <mxGeometry x="590" y="140" width="130" height="860" as="geometry" />
        </mxCell>
        <mxCell id="zn1JRJ17HzTD-g17DCoP-54" value="" style="html=1;points=[[0,0,0,0,5],[0,1,0,0,-5],[1,0,0,0,5],[1,1,0,0,-5]];perimeter=orthogonalPerimeter;outlineConnect=0;targetShapes=umlLifeline;portConstraint=eastwest;newEdgeStyle={&quot;curved&quot;:0,&quot;rounded&quot;:0};" vertex="1" parent="zn1JRJ17HzTD-g17DCoP-42">
          <mxGeometry x="60" y="70" width="10" height="80" as="geometry" />
        </mxCell>
        <mxCell id="zn1JRJ17HzTD-g17DCoP-60" value="" style="html=1;points=[[0,0,0,0,5],[0,1,0,0,-5],[1,0,0,0,5],[1,1,0,0,-5]];perimeter=orthogonalPerimeter;outlineConnect=0;targetShapes=umlLifeline;portConstraint=eastwest;newEdgeStyle={&quot;curved&quot;:0,&quot;rounded&quot;:0};" vertex="1" parent="zn1JRJ17HzTD-g17DCoP-42">
          <mxGeometry x="60" y="180" width="10" height="80" as="geometry" />
        </mxCell>
        <mxCell id="zn1JRJ17HzTD-g17DCoP-43" value="mro-mat-plan" style="shape=umlLifeline;perimeter=lifelinePerimeter;whiteSpace=wrap;html=1;container=1;dropTarget=0;collapsible=0;recursiveResize=0;outlineConnect=0;portConstraint=eastwest;newEdgeStyle={&quot;curved&quot;:0,&quot;rounded&quot;:0};" vertex="1" parent="1">
          <mxGeometry x="250" y="140" width="130" height="860" as="geometry" />
        </mxCell>
        <mxCell id="zn1JRJ17HzTD-g17DCoP-48" value="" style="html=1;points=[[0,0,0,0,5],[0,1,0,0,-5],[1,0,0,0,5],[1,1,0,0,-5]];perimeter=orthogonalPerimeter;outlineConnect=0;targetShapes=umlLifeline;portConstraint=eastwest;newEdgeStyle={&quot;curved&quot;:0,&quot;rounded&quot;:0};" vertex="1" parent="zn1JRJ17HzTD-g17DCoP-43">
          <mxGeometry x="60" y="70" width="10" height="80" as="geometry" />
        </mxCell>
        <mxCell id="zn1JRJ17HzTD-g17DCoP-44" value="traceController" style="shape=umlLifeline;perimeter=lifelinePerimeter;whiteSpace=wrap;html=1;container=1;dropTarget=0;collapsible=0;recursiveResize=0;outlineConnect=0;portConstraint=eastwest;newEdgeStyle={&quot;curved&quot;:0,&quot;rounded&quot;:0};" vertex="1" parent="1">
          <mxGeometry x="420" y="140" width="130" height="860" as="geometry" />
        </mxCell>
        <mxCell id="zn1JRJ17HzTD-g17DCoP-57" value="" style="html=1;points=[[0,0,0,0,5],[0,1,0,0,-5],[1,0,0,0,5],[1,1,0,0,-5]];perimeter=orthogonalPerimeter;outlineConnect=0;targetShapes=umlLifeline;portConstraint=eastwest;newEdgeStyle={&quot;curved&quot;:0,&quot;rounded&quot;:0};" vertex="1" parent="zn1JRJ17HzTD-g17DCoP-44">
          <mxGeometry x="60" y="180" width="10" height="80" as="geometry" />
        </mxCell>
        <mxCell id="zn1JRJ17HzTD-g17DCoP-49" value="发起采购申请" style="html=1;verticalAlign=bottom;startArrow=oval;endArrow=block;startSize=8;curved=0;rounded=0;entryX=0;entryY=0;entryDx=0;entryDy=5;" edge="1" target="zn1JRJ17HzTD-g17DCoP-48" parent="1" source="zn1JRJ17HzTD-g17DCoP-41">
          <mxGeometry relative="1" as="geometry">
            <mxPoint x="240" y="215" as="sourcePoint" />
          </mxGeometry>
        </mxCell>
        <mxCell id="zn1JRJ17HzTD-g17DCoP-55" value="调用市场获取获取寄售协议信息" style="html=1;verticalAlign=bottom;endArrow=block;curved=0;rounded=0;entryX=0;entryY=0;entryDx=0;entryDy=5;" edge="1" target="zn1JRJ17HzTD-g17DCoP-54" parent="1" source="zn1JRJ17HzTD-g17DCoP-48">
          <mxGeometry relative="1" as="geometry">
            <mxPoint x="580" y="215" as="sourcePoint" />
          </mxGeometry>
        </mxCell>
        <mxCell id="zn1JRJ17HzTD-g17DCoP-56" value="返回市场寄售协议信息" style="html=1;verticalAlign=bottom;endArrow=open;dashed=1;endSize=8;curved=0;rounded=0;exitX=0;exitY=1;exitDx=0;exitDy=-5;" edge="1" source="zn1JRJ17HzTD-g17DCoP-54" parent="1" target="zn1JRJ17HzTD-g17DCoP-43">
          <mxGeometry relative="1" as="geometry">
            <mxPoint x="580" y="285" as="targetPoint" />
          </mxGeometry>
        </mxCell>
        <mxCell id="zn1JRJ17HzTD-g17DCoP-58" value="请求采购生成PR" style="html=1;verticalAlign=bottom;endArrow=block;curved=0;rounded=0;entryX=0;entryY=0;entryDx=0;entryDy=5;" edge="1" target="zn1JRJ17HzTD-g17DCoP-57" parent="1" source="zn1JRJ17HzTD-g17DCoP-43">
          <mxGeometry x="0.003" relative="1" as="geometry">
            <mxPoint x="410" y="325" as="sourcePoint" />
            <mxPoint as="offset" />
          </mxGeometry>
        </mxCell>
        <mxCell id="zn1JRJ17HzTD-g17DCoP-59" value="返回PR号/业务ID" style="html=1;verticalAlign=bottom;endArrow=open;dashed=1;endSize=8;curved=0;rounded=0;exitX=0;exitY=1;exitDx=0;exitDy=-5;" edge="1" source="zn1JRJ17HzTD-g17DCoP-57" parent="1" target="zn1JRJ17HzTD-g17DCoP-43">
          <mxGeometry x="0.003" relative="1" as="geometry">
            <mxPoint x="410" y="395" as="targetPoint" />
            <mxPoint as="offset" />
          </mxGeometry>
        </mxCell>
        <mxCell id="zn1JRJ17HzTD-g17DCoP-61" value="请求获取寄售信息" style="html=1;verticalAlign=bottom;endArrow=block;curved=0;rounded=0;entryX=0;entryY=0;entryDx=0;entryDy=5;" edge="1" target="zn1JRJ17HzTD-g17DCoP-60" parent="1" source="zn1JRJ17HzTD-g17DCoP-44">
          <mxGeometry relative="1" as="geometry">
            <mxPoint x="580" y="325" as="sourcePoint" />
          </mxGeometry>
        </mxCell>
        <mxCell id="zn1JRJ17HzTD-g17DCoP-62" value="返回寄售协议信息" style="html=1;verticalAlign=bottom;endArrow=open;dashed=1;endSize=8;curved=0;rounded=0;exitX=0;exitY=1;exitDx=0;exitDy=-5;" edge="1" source="zn1JRJ17HzTD-g17DCoP-60" parent="1" target="zn1JRJ17HzTD-g17DCoP-44">
          <mxGeometry relative="1" as="geometry">
            <mxPoint x="580" y="395" as="targetPoint" />
          </mxGeometry>
        </mxCell>
        <mxCell id="zn1JRJ17HzTD-g17DCoP-63" value="IAmpQuoteAirMaterialService" style="shape=umlLifeline;perimeter=lifelinePerimeter;whiteSpace=wrap;html=1;container=1;dropTarget=0;collapsible=0;recursiveResize=0;outlineConnect=0;portConstraint=eastwest;newEdgeStyle={&quot;curved&quot;:0,&quot;rounded&quot;:0};" vertex="1" parent="1">
          <mxGeometry x="780" y="140" width="170" height="860" as="geometry" />
        </mxCell>
        <mxCell id="zn1JRJ17HzTD-g17DCoP-64" value="" style="html=1;points=[[0,0,0,0,5],[0,1,0,0,-5],[1,0,0,0,5],[1,1,0,0,-5]];perimeter=orthogonalPerimeter;outlineConnect=0;targetShapes=umlLifeline;portConstraint=eastwest;newEdgeStyle={&quot;curved&quot;:0,&quot;rounded&quot;:0};" vertex="1" parent="zn1JRJ17HzTD-g17DCoP-63">
          <mxGeometry x="80" y="290" width="10" height="80" as="geometry" />
        </mxCell>
        <mxCell id="zn1JRJ17HzTD-g17DCoP-65" value="根据返回的协议信息自动报价并中标" style="html=1;verticalAlign=bottom;startArrow=oval;endArrow=block;startSize=8;curved=0;rounded=0;entryX=0;entryY=0;entryDx=0;entryDy=5;" edge="1" target="zn1JRJ17HzTD-g17DCoP-64" parent="1" source="zn1JRJ17HzTD-g17DCoP-44">
          <mxGeometry relative="1" as="geometry">
            <mxPoint x="790" y="435" as="sourcePoint" />
            <mxPoint as="offset" />
          </mxGeometry>
        </mxCell>
        <mxCell id="zn1JRJ17HzTD-g17DCoP-67" value="IAmpPoMaterialService" style="shape=umlLifeline;perimeter=lifelinePerimeter;whiteSpace=wrap;html=1;container=1;dropTarget=0;collapsible=0;recursiveResize=0;outlineConnect=0;portConstraint=eastwest;newEdgeStyle={&quot;curved&quot;:0,&quot;rounded&quot;:0};" vertex="1" parent="1">
          <mxGeometry x="1010" y="140" width="170" height="860" as="geometry" />
        </mxCell>
        <mxCell id="zn1JRJ17HzTD-g17DCoP-87" value="" style="html=1;points=[[0,0,0,0,5],[0,1,0,0,-5],[1,0,0,0,5],[1,1,0,0,-5]];perimeter=orthogonalPerimeter;outlineConnect=0;targetShapes=umlLifeline;portConstraint=eastwest;newEdgeStyle={&quot;curved&quot;:0,&quot;rounded&quot;:0};" vertex="1" parent="zn1JRJ17HzTD-g17DCoP-67">
          <mxGeometry x="80" y="390" width="10" height="80" as="geometry" />
        </mxCell>
        <mxCell id="zn1JRJ17HzTD-g17DCoP-92" value="" style="html=1;points=[[0,0,0,0,5],[0,1,0,0,-5],[1,0,0,0,5],[1,1,0,0,-5]];perimeter=orthogonalPerimeter;outlineConnect=0;targetShapes=umlLifeline;portConstraint=eastwest;newEdgeStyle={&quot;curved&quot;:0,&quot;rounded&quot;:0};" vertex="1" parent="zn1JRJ17HzTD-g17DCoP-67">
          <mxGeometry x="80" y="530" width="10" height="80" as="geometry" />
        </mxCell>
        <mxCell id="zn1JRJ17HzTD-g17DCoP-72" value="traceUtils" style="shape=umlLifeline;perimeter=lifelinePerimeter;whiteSpace=wrap;html=1;container=1;dropTarget=0;collapsible=0;recursiveResize=0;outlineConnect=0;portConstraint=eastwest;newEdgeStyle={&quot;curved&quot;:0,&quot;rounded&quot;:0};" vertex="1" parent="1">
          <mxGeometry x="1241" y="140" width="170" height="860" as="geometry" />
        </mxCell>
        <mxCell id="zn1JRJ17HzTD-g17DCoP-95" value="" style="html=1;points=[[0,0,0,0,5],[0,1,0,0,-5],[1,0,0,0,5],[1,1,0,0,-5]];perimeter=orthogonalPerimeter;outlineConnect=0;targetShapes=umlLifeline;portConstraint=eastwest;newEdgeStyle={&quot;curved&quot;:0,&quot;rounded&quot;:0};" vertex="1" parent="zn1JRJ17HzTD-g17DCoP-72">
          <mxGeometry x="80" y="630" width="10" height="80" as="geometry" />
        </mxCell>
        <mxCell id="zn1JRJ17HzTD-g17DCoP-88" value="查询可关联的PO" style="html=1;verticalAlign=bottom;endArrow=block;curved=0;rounded=0;entryX=0;entryY=0;entryDx=0;entryDy=5;" edge="1" target="zn1JRJ17HzTD-g17DCoP-87" parent="1" source="zn1JRJ17HzTD-g17DCoP-44">
          <mxGeometry relative="1" as="geometry">
            <mxPoint x="1020" y="535" as="sourcePoint" />
          </mxGeometry>
        </mxCell>
        <mxCell id="zn1JRJ17HzTD-g17DCoP-89" value="返回可关联的po+line号" style="html=1;verticalAlign=bottom;endArrow=open;dashed=1;endSize=8;curved=0;rounded=0;exitX=0;exitY=1;exitDx=0;exitDy=-5;" edge="1" source="zn1JRJ17HzTD-g17DCoP-87" parent="1" target="zn1JRJ17HzTD-g17DCoP-44">
          <mxGeometry relative="1" as="geometry">
            <mxPoint x="1020" y="605" as="targetPoint" />
          </mxGeometry>
        </mxCell>
        <mxCell id="zn1JRJ17HzTD-g17DCoP-93" value="调用自动关联PO" style="html=1;verticalAlign=bottom;startArrow=oval;endArrow=block;startSize=8;curved=0;rounded=0;entryX=0;entryY=0;entryDx=0;entryDy=5;" edge="1" target="zn1JRJ17HzTD-g17DCoP-92" parent="1" source="zn1JRJ17HzTD-g17DCoP-44">
          <mxGeometry relative="1" as="geometry">
            <mxPoint x="1020" y="695" as="sourcePoint" />
          </mxGeometry>
        </mxCell>
        <mxCell id="zn1JRJ17HzTD-g17DCoP-96" value="调用爬虫生成PO号请求" style="html=1;verticalAlign=bottom;endArrow=block;curved=0;rounded=0;entryX=0;entryY=0;entryDx=0;entryDy=5;" edge="1" target="zn1JRJ17HzTD-g17DCoP-95" parent="1" source="zn1JRJ17HzTD-g17DCoP-44">
          <mxGeometry relative="1" as="geometry">
            <mxPoint x="1251" y="775" as="sourcePoint" />
          </mxGeometry>
        </mxCell>
        <mxCell id="zn1JRJ17HzTD-g17DCoP-97" value="返回logId" style="html=1;verticalAlign=bottom;endArrow=open;dashed=1;endSize=8;curved=0;rounded=0;exitX=0;exitY=1;exitDx=0;exitDy=-5;" edge="1" source="zn1JRJ17HzTD-g17DCoP-95" parent="1" target="zn1JRJ17HzTD-g17DCoP-44">
          <mxGeometry relative="1" as="geometry">
            <mxPoint x="1251" y="845" as="targetPoint" />
          </mxGeometry>
        </mxCell>
      </root>
    </mxGraphModel>
  </diagram>
</mxfile>
